<svg width="393" height="229" viewBox="0 0 393 229" fill="none" xmlns="http://www.w3.org/2000/svg">
<path d="M-32.3245 228.37L-14.2506 217.068C5.45154 206.594 42.8286 183.59 85.7586 181.858C130.317 180.955 182.056 202.153 227.412 203.706C271.14 204.43 310.512 187.565 345.496 157.194C380.479 126.822 410.243 84.5714 426.754 64.2745L441.636 43.1492L433.067 -1.3556e-07L418.185 21.1253C401.674 41.4222 371.91 83.6729 336.926 114.044C301.943 144.416 262.571 161.281 218.843 160.557C173.487 159.004 121.747 137.806 77.1892 138.709C34.2592 140.44 -3.11787 163.445 -22.8201 173.919L-40.8939 185.221L-32.3245 228.37Z" fill="#6F00A0"/>
</svg>
